<svg width="75" height="75" viewBox="0 0 75 75" fill="none" xmlns="http://www.w3.org/2000/svg">
<path d="M75 0H0V75H75V0Z" fill="#F7DF1E"/>
<path d="M50.3809 58.5939C51.8916 61.0606 53.8571 62.8737 57.3333 62.8737C60.2535 62.8737 62.119 61.4142 62.119 59.3975C62.119 56.9808 60.2023 56.1249 56.988 54.7189L55.2261 53.963C50.1404 51.7963 46.7618 49.082 46.7618 43.3439C46.7618 38.0582 50.7892 34.0344 57.0833 34.0344C61.5642 34.0344 64.7857 35.5939 67.1071 39.6773L61.619 43.2011C60.4107 41.0344 59.1071 40.1808 57.0833 40.1808C55.019 40.1808 53.7107 41.4904 53.7107 43.2011C53.7107 45.3154 55.0202 46.1713 58.044 47.4808L59.8059 48.2356C65.794 50.8035 69.1749 53.4213 69.1749 59.307C69.1749 65.6523 64.1904 69.1285 57.4964 69.1285C50.9511 69.1285 46.7226 66.0094 44.6535 61.9213L50.3809 58.5939ZM25.4845 59.2047C26.5916 61.1689 27.5987 62.8297 30.0202 62.8297C32.3357 62.8297 33.7964 61.9237 33.7964 58.4011V34.4368H40.844V58.4963C40.844 65.7939 36.5654 69.1154 30.3202 69.1154C24.6773 69.1154 21.4095 66.1951 19.7476 62.6779L25.4845 59.2047Z" fill="black"/>
</svg>
